<svg width="161" height="104" viewBox="0 0 161 104" fill="none" xmlns="http://www.w3.org/2000/svg">
<g clip-path="url(#clip0_6_14)">
<path fill-rule="evenodd" clip-rule="evenodd" d="M43.83 28.3398C43.83 25.5784 46.0686 23.3398 48.83 23.3398H112.83C115.591 23.3398 117.83 25.5784 117.83 28.3398V71.3398C117.83 74.1012 115.591 76.3398 112.83 76.3398H78.33L62.83 89.3398C61.3541 89.8318 59.83 88.7332 59.83 87.1775V76.3398H48.83C46.0686 76.3398 43.83 74.1012 43.83 71.3398V28.3398ZM85.4216 49.8161C85.4216 52.3141 83.3966 54.3391 80.8986 54.3391C78.4007 54.3391 76.3757 52.3141 76.3757 49.8161C76.3757 47.3182 78.4007 45.2932 80.8986 45.2932C83.3966 45.2932 85.4216 47.3182 85.4216 49.8161ZM68.876 49.8168C68.876 52.3148 66.851 54.3398 64.353 54.3398C61.855 54.3398 59.83 52.3148 59.83 49.8168C59.83 47.3188 61.855 45.2938 64.353 45.2938C66.851 45.2938 68.876 47.3188 68.876 49.8168ZM97.4443 54.3391C99.9423 54.3391 101.967 52.3141 101.967 49.8161C101.967 47.3182 99.9423 45.2932 97.4443 45.2932C94.9463 45.2932 92.9213 47.3182 92.9213 49.8161C92.9213 52.3141 94.9463 54.3391 97.4443 54.3391Z" fill="#DC2B34"/>
</g>
<defs>
<clipPath id="clip0_6_14">
<rect width="160" height="103" fill="white" transform="translate(0.330002 0.339844)"/>
</clipPath>
</defs>
</svg>
