<svg width="161" height="104" viewBox="0 0 161 104" fill="none" xmlns="http://www.w3.org/2000/svg">
<g clip-path="url(#clip0_6_33)">
<path fill-rule="evenodd" clip-rule="evenodd" d="M104.14 21.3399C105.245 21.3399 106.14 22.2353 106.14 23.3399V74.3399C106.14 75.4445 105.245 76.3399 104.14 76.3399H100.14V30.2926C100.14 28.6357 98.7969 27.2926 97.14 27.2926H58.6851C57.5683 27.2926 56.6184 26.3478 57.0151 25.3039C57.2951 24.5673 57.7372 23.9174 58.3415 23.3543C59.4417 22.3291 60.7045 21.3399 62.1298 21.3399H104.14ZM106.014 16.3403H62.1298C59.1041 16.3153 56.5161 17.378 54.3657 19.5285C52.2152 21.6789 51.14 24.267 51.14 27.2926V76.6903C51.14 79.691 52.2152 82.2665 54.3657 84.4169C56.5161 86.5674 59.1041 87.3399 62.1298 87.3399H97.14C98.7969 87.3399 100.14 85.9968 100.14 84.3399V81.3399H106.014C106.366 81.3399 106.684 81.3547 106.978 81.3684C108.062 81.4188 108.803 81.4532 109.59 80.6662C110.59 79.6659 111.14 78.3407 111.14 76.6903V21.8165C111.14 20.1661 110.59 18.8408 109.59 17.8406C108.59 16.8404 107.664 16.3403 106.014 16.3403ZM72.3931 63.3402C72.3651 63.8918 72.8152 64.3399 73.3675 64.3399H77.7369C78.2407 64.3399 78.6658 63.9652 78.729 63.4654L78.8625 62.4098C79.0416 60.7852 79.7497 59.3679 80.9868 58.1578L82.9646 56.2431C84.5111 54.718 85.5936 53.3339 86.2121 52.0906C86.8307 50.8307 87.14 49.4963 87.14 48.0872C87.14 44.9873 86.1877 42.5919 84.2832 40.9011C82.3786 39.1936 79.7009 38.3399 76.2499 38.3399C72.8315 38.3399 70.1293 39.2351 68.1433 41.0254C66.389 42.62 65.403 44.665 65.1854 47.3303C65.1401 47.8847 65.594 48.3399 66.1503 48.3399H71.2453C71.788 48.3399 72.2175 47.9031 72.3185 47.3699C72.4754 46.5415 72.8173 45.9008 73.3442 45.352C74.0767 44.5895 75.0453 44.2082 76.2499 44.2082C78.7893 44.2082 80.059 45.6089 80.059 48.4105C80.059 49.3388 79.8148 50.2257 79.3265 51.0711C78.8381 51.8999 77.8533 52.9857 76.372 54.3285C74.9069 55.6546 73.8977 57.0057 73.3442 58.3816C72.8707 59.5587 72.4925 61.3841 72.3931 63.3402ZM72.9047 68.8251C72.1722 69.5379 71.8059 70.4497 71.8059 71.5603C71.8059 72.6544 72.164 73.5579 72.8803 74.2707C73.6128 74.9835 74.5732 75.3399 75.7615 75.3399C76.9498 75.3399 77.9021 74.9835 78.6184 74.2707C79.3509 73.5579 79.7171 72.6544 79.7171 71.5603C79.7171 70.4497 79.3427 69.5379 78.5939 68.8251C77.8614 68.0957 76.9173 67.731 75.7615 67.731C74.6058 67.731 73.6535 68.0957 72.9047 68.8251Z" fill="#DC2B34"/>
</g>
<defs>
<clipPath id="clip0_6_33">
<rect width="160" height="103" fill="white" transform="translate(0.640015 0.339844)"/>
</clipPath>
</defs>
</svg>
