<svg width="161" height="104" viewBox="0 0 161 104" fill="none" xmlns="http://www.w3.org/2000/svg">
<g clip-path="url(#clip0_6_23)">
<path d="M47.48 25.3398C45.8231 25.3398 44.48 26.6829 44.48 28.3398V29.3845L79.9665 49.4293C80.8821 49.9465 82.0018 49.9465 82.9174 49.4293L118.48 29.3415V28.3398C118.48 26.6829 117.137 25.3398 115.48 25.3398H47.48Z" fill="#DC2B34"/>
<path d="M118.48 35.3413L82.9174 55.4291C82.0018 55.9463 80.8821 55.9463 79.9665 55.4291L44.48 35.3843V75.3396C44.48 76.9965 45.8231 78.3396 47.48 78.3396H115.48C117.137 78.3396 118.48 76.9965 118.48 75.3396V35.3413Z" fill="#DC2B34"/>
</g>
<defs>
<clipPath id="clip0_6_23">
<rect width="160" height="103" fill="white" transform="translate(0.980011 0.339844)"/>
</clipPath>
</defs>
</svg>
