<svg width="32" height="33" viewBox="0 0 32 33" fill="none" xmlns="http://www.w3.org/2000/svg">
<g clip-path="url(#clip0_104_455)">
<path d="M24 0.969971H8C3.58172 0.969971 0 4.55169 0 8.96997V24.97C0 29.3882 3.58172 32.97 8 32.97H24C28.4183 32.97 32 29.3882 32 24.97V8.96997C32 4.55169 28.4183 0.969971 24 0.969971Z" fill="#51ADFF"/>
<path fill-rule="evenodd" clip-rule="evenodd" d="M8.62134 7.96997C7.28498 7.96997 6.61573 9.58568 7.56068 10.5306L10.3438 13.3138L5.90443 17.7531C5.31864 18.3389 5.31864 19.2886 5.90443 19.8744L13.0502 27.0202C13.636 27.606 14.5858 27.606 15.1716 27.0202L19.6109 22.5809L22.4394 25.4093C23.3843 26.3543 25 25.685 25 24.3487V9.96997C25 8.8654 24.1046 7.96997 23 7.96997H8.62134Z" fill="white"/>
<path d="M14 23.97L18.8964 19.0736C19.0917 18.8783 19.4083 18.8783 19.6036 19.0736L22.0732 21.5432C22.2307 21.7007 22.5 21.5892 22.5 21.3664V12.47" stroke="#222222" stroke-width="1.2" stroke-linecap="round" stroke-linejoin="round"/>
</g>
<defs>
<clipPath id="clip0_104_455">
<rect width="32" height="32" fill="white" transform="translate(0 0.969971)"/>
</clipPath>
</defs>
</svg>
