<svg width="33" height="33" viewBox="0 0 33 33" fill="none" xmlns="http://www.w3.org/2000/svg">
<g clip-path="url(#clip0_104_470)">
<path d="M24.19 0.969971H8.19C3.77172 0.969971 0.190002 4.55169 0.190002 8.96997V24.97C0.190002 29.3882 3.77172 32.97 8.19 32.97H24.19C28.6083 32.97 32.19 29.3882 32.19 24.97V8.96997C32.19 4.55169 28.6083 0.969971 24.19 0.969971Z" fill="#FF5A49"/>
<path fill-rule="evenodd" clip-rule="evenodd" d="M6.72878 7.95728C6.00513 7.95728 5.52107 8.70214 5.81497 9.36342L6.48164 10.8634C6.57772 11.0796 6.69002 11.2991 6.69002 11.5357V24.9573C6.69002 26.0619 7.58545 26.9573 8.69002 26.9573H23.69C24.7946 26.9573 25.69 26.0619 25.69 24.9573V11.5357C25.69 11.2991 25.8023 11.0796 25.8984 10.8634L26.565 9.36342C26.8589 8.70214 26.3749 7.95728 25.6512 7.95728H23.69H8.69002H6.72878Z" fill="white"/>
<path d="M17.1901 19.47H15.1901C14.9139 19.47 14.6901 19.6938 14.6901 19.97V21.97C14.6901 22.2461 14.9139 22.47 15.1901 22.47H17.1901C17.4662 22.47 17.6901 22.2461 17.6901 21.97V19.97C17.6901 19.6938 17.4662 19.47 17.1901 19.47Z" stroke="#222222" stroke-linecap="round" stroke-linejoin="round"/>
<path d="M22.1901 19.47H20.1901C19.9139 19.47 19.6901 19.6938 19.6901 19.97V21.97C19.6901 22.2461 19.9139 22.47 20.1901 22.47H22.1901C22.4662 22.47 22.6901 22.2461 22.6901 21.97V19.97C22.6901 19.6938 22.4662 19.47 22.1901 19.47Z" stroke="#222222" stroke-linecap="round" stroke-linejoin="round"/>
<path d="M12.1901 19.47H10.1901C9.91392 19.47 9.69006 19.6938 9.69006 19.97V21.97C9.69006 22.2461 9.91392 22.47 10.1901 22.47H12.1901C12.4662 22.47 12.6901 22.2461 12.6901 21.97V19.97C12.6901 19.6938 12.4662 19.47 12.1901 19.47Z" stroke="#222222" stroke-linecap="round" stroke-linejoin="round"/>
<path d="M17.1901 13.47H15.1901C14.9139 13.47 14.6901 13.6938 14.6901 13.97V15.97C14.6901 16.2461 14.9139 16.47 15.1901 16.47H17.1901C17.4662 16.47 17.6901 16.2461 17.6901 15.97V13.97C17.6901 13.6938 17.4662 13.47 17.1901 13.47Z" stroke="#222222" stroke-linecap="round" stroke-linejoin="round"/>
<path d="M22.1901 13.47H20.1901C19.9139 13.47 19.6901 13.6938 19.6901 13.97V15.97C19.6901 16.2461 19.9139 16.47 20.1901 16.47H22.1901C22.4662 16.47 22.6901 16.2461 22.6901 15.97V13.97C22.6901 13.6938 22.4662 13.47 22.1901 13.47Z" stroke="#222222" stroke-linecap="round" stroke-linejoin="round"/>
<path d="M12.1901 13.47H10.1901C9.91392 13.47 9.69006 13.6938 9.69006 13.97V15.97C9.69006 16.2461 9.91392 16.47 10.1901 16.47H12.1901C12.4662 16.47 12.6901 16.2461 12.6901 15.97V13.97C12.6901 13.6938 12.4662 13.47 12.1901 13.47Z" stroke="#222222" stroke-linecap="round" stroke-linejoin="round"/>
</g>
<defs>
<clipPath id="clip0_104_470">
<rect width="32" height="32" fill="white" transform="translate(0.190002 0.969971)"/>
</clipPath>
</defs>
</svg>
