<svg width="33" height="33" viewBox="0 0 33 33" fill="none" xmlns="http://www.w3.org/2000/svg">
<g clip-path="url(#clip0_104_516)">
<path d="M24.38 0.969971H8.38C3.96173 0.969971 0.380005 4.55169 0.380005 8.96997V24.97C0.380005 29.3882 3.96173 32.97 8.38 32.97H24.38C28.7983 32.97 32.38 29.3882 32.38 24.97V8.96997C32.38 4.55169 28.7983 0.969971 24.38 0.969971Z" fill="#FF5A49"/>
<path fill-rule="evenodd" clip-rule="evenodd" d="M6.64434 9.7767C8.99679 7.36773 12.8108 7.36773 15.1633 9.7767L16.0223 10.6563C16.2185 10.8572 16.5415 10.8572 16.7377 10.6563L17.5967 9.7767C19.9492 7.36773 23.7632 7.36773 26.1157 9.7767C28.4681 12.1857 28.4681 16.0914 26.1157 18.5004L18.1686 26.6384C17.1877 27.6428 15.5723 27.6428 14.5914 26.6384L6.64434 18.5004C4.29189 16.0914 4.29189 12.1857 6.64434 9.7767Z" fill="white"/>
<path d="M16.88 23.72L23.3775 17.2226C25.292 15.3153 25.0267 13.2405 23.8618 12.0768" stroke="#222222" stroke-width="1.3" stroke-linecap="round" stroke-linejoin="round"/>
</g>
<defs>
<clipPath id="clip0_104_516">
<rect width="32" height="32" fill="white" transform="translate(0.380005 0.969971)"/>
</clipPath>
</defs>
</svg>
