<svg width="33" height="33" viewBox="0 0 33 33" fill="none" xmlns="http://www.w3.org/2000/svg">
<g clip-path="url(#clip0_104_489)">
<path d="M24.19 0.969971H8.19C3.77172 0.969971 0.190002 4.55169 0.190002 8.96997V24.97C0.190002 29.3882 3.77172 32.97 8.19 32.97H24.19C28.6083 32.97 32.19 29.3882 32.19 24.97V8.96997C32.19 4.55169 28.6083 0.969971 24.19 0.969971Z" fill="#FF8227"/>
<path fill-rule="evenodd" clip-rule="evenodd" d="M8.69 8.46997C7.30929 8.46997 6.19 9.58926 6.19 10.97V22.97C6.19 24.3507 7.30929 25.47 8.69 25.47H24.19C25.5707 25.47 26.69 24.3507 26.69 22.97V21.262C27.573 20.8762 28.19 19.9952 28.19 18.97V14.97C28.19 13.9448 27.573 13.0638 26.69 12.678V10.97C26.69 9.58926 25.5707 8.46997 24.19 8.46997H8.69Z" fill="white"/>
<path d="M24.69 13.97H20.19C18.5331 13.97 17.19 15.3131 17.19 16.97C17.19 18.6269 18.5331 19.97 20.19 19.97H24.69" stroke="#222222" stroke-width="1.3" stroke-linecap="round" stroke-linejoin="round"/>
<path d="M20.19 17.97C20.7423 17.97 21.19 17.5223 21.19 16.97C21.19 16.4177 20.7423 15.97 20.19 15.97C19.6377 15.97 19.19 16.4177 19.19 16.97C19.19 17.5223 19.6377 17.97 20.19 17.97Z" fill="#222222"/>
</g>
<defs>
<clipPath id="clip0_104_489">
<rect width="32" height="32" fill="white" transform="translate(0.190002 0.969971)"/>
</clipPath>
</defs>
</svg>
