<?xml version="1.0" standalone="no"?>
<!DOCTYPE svg PUBLIC "-//W3C//DTD SVG 20010904//EN"
 "http://www.w3.org/TR/2001/REC-SVG-20010904/DTD/svg10.dtd">
<svg version="1.0" xmlns="http://www.w3.org/2000/svg"
 width="153.000000pt" height="31.000000pt" viewBox="0 0 153.000000 31.000000"
 preserveAspectRatio="xMidYMid meet">

<g transform="translate(0.000000,31.000000) scale(0.100000,-0.100000)"
fill="#fff" stroke="none">
<path d="M237 304 c-13 -13 -7 -52 8 -58 27 -10 46 5 43 33 -3 26 -35 41 -51
25z"/>
<path d="M1059 295 c-1 -6 -1 -14 0 -18 1 -5 -5 -28 -14 -53 -19 -57 -19 -109
1 -167 15 -44 18 -47 50 -47 31 0 34 3 34 28 0 16 -9 37 -20 47 -12 10 -20 31
-20 49 0 17 -7 40 -15 50 -18 24 -19 50 -3 76 10 15 10 22 0 32 -6 6 -13 8
-13 3z"/>
<path d="M1180 285 c0 -8 9 -19 20 -25 11 -6 20 -20 20 -31 0 -11 8 -22 18
-26 37 -13 44 -25 25 -46 -17 -19 -17 -19 5 -13 19 6 22 4 22 -18 0 -39 -25
-56 -81 -56 -48 0 -49 -1 -49 -30 0 -27 3 -30 34 -30 22 0 36 6 40 17 6 15 8
15 19 -1 9 -12 23 -17 42 -14 30 3 36 13 50 81 3 15 10 25 15 22 12 -7 -19 83
-38 113 -18 28 -62 52 -97 52 -14 0 -25 5 -25 10 0 6 -4 10 -10 10 -5 0 -10
-7 -10 -15z"/>
<path d="M20 175 l0 -115 35 0 c34 0 35 1 35 39 0 25 5 41 15 45 12 4 15 -4
15 -39 0 -45 0 -45 35 -45 l35 0 0 115 0 115 -35 0 c-34 0 -35 -1 -35 -40 0
-29 -4 -40 -15 -40 -11 0 -15 11 -15 40 0 39 -1 40 -35 40 l-35 0 0 -115z"/>
<path d="M394 232 c-12 -2 -32 -14 -45 -28 -19 -21 -23 -37 -27 -114 l-4 -90
35 0 c31 0 36 3 39 28 2 22 9 28 33 30 47 5 75 38 75 87 0 60 -45 97 -106 87z
m39 -76 c7 -18 -15 -37 -31 -27 -15 9 -5 41 13 41 7 0 15 -6 18 -14z"/>
<path d="M575 226 c-42 -18 -55 -53 -55 -146 l0 -80 35 0 c32 0 35 2 35 30 0
27 3 30 30 30 41 0 80 39 80 80 0 44 -16 70 -55 86 -40 16 -33 16 -70 0z m52
-72 c8 -21 -13 -42 -28 -27 -13 13 -5 43 11 43 6 0 13 -7 17 -16z"/>
<path d="M773 228 c-34 -9 -63 -49 -63 -87 0 -11 12 -33 26 -50 74 -89 206 21
134 111 -23 30 -52 38 -97 26z m44 -74 c8 -21 -13 -42 -28 -27 -13 13 -5 43
11 43 6 0 13 -7 17 -16z"/>
<path d="M230 145 l0 -85 30 0 30 0 0 85 0 85 -30 0 -30 0 0 -85z"/>
<path d="M1110 220 c0 -5 5 -10 10 -10 6 0 10 5 10 10 0 6 -4 10 -10 10 -5 0
-10 -4 -10 -10z"/>
<path d="M1155 150 c3 -5 11 -10 16 -10 6 0 7 5 4 10 -3 6 -11 10 -16 10 -6 0
-7 -4 -4 -10z"/>
</g>
</svg>
