<svg width="32" height="33" viewBox="0 0 32 33" fill="none" xmlns="http://www.w3.org/2000/svg">
<g clip-path="url(#clip0_104_49)">
<path d="M24 0.859985H8C3.58172 0.859985 0 4.44171 0 8.85999V24.86C0 29.2783 3.58172 32.86 8 32.86H24C28.4183 32.86 32 29.2783 32 24.86V8.85999C32 4.44171 28.4183 0.859985 24 0.859985Z" fill="#B750D1"/>
<path d="M22.3333 6.85999H9.66667C8.19391 6.85999 7 8.05389 7 9.52666V24.1933C7 25.6661 8.19391 26.86 9.66667 26.86H22.3333C23.8061 26.86 25 25.6661 25 24.1933V9.52666C25 8.05389 23.8061 6.85999 22.3333 6.85999Z" fill="white"/>
<path d="M12 16.86C12.5523 16.86 13 17.3077 13 17.86C13 18.4123 12.5523 18.86 12 18.86C11.4477 18.86 11 18.4123 11 17.86C11 17.3077 11.4477 16.86 12 16.86Z" fill="#222222"/>
<path d="M12 20.86C12.5523 20.86 13 21.3077 13 21.86C13 22.4123 12.5523 22.86 12 22.86C11.4477 22.86 11 22.4123 11 21.86C11 21.3077 11.4477 20.86 12 20.86Z" fill="#222222"/>
<path d="M16 16.86C16.5523 16.86 17 17.3077 17 17.86C17 18.4123 16.5523 18.86 16 18.86C15.4477 18.86 15 18.4123 15 17.86C15 17.3077 15.4477 16.86 16 16.86Z" fill="#222222"/>
<path d="M16 20.86C16.5523 20.86 17 21.3077 17 21.86C17 22.4123 16.5523 22.86 16 22.86C15.4477 22.86 15 22.4123 15 21.86C15 21.3077 15.4477 20.86 16 20.86Z" fill="#222222"/>
<path d="M20 16.86C20.5523 16.86 21 17.3077 21 17.86C21 18.4123 20.5523 18.86 20 18.86C19.4477 18.86 19 18.4123 19 17.86C19 17.3077 19.4477 16.86 20 16.86Z" fill="#222222"/>
<path d="M20 20.86C20.5523 20.86 21 21.3077 21 21.86C21 22.4123 20.5523 22.86 20 22.86C19.4477 22.86 19 22.4123 19 21.86C19 21.3077 19.4477 20.86 20 20.86Z" fill="#222222"/>
<path d="M11 11.86H21" stroke="#222222" stroke-width="2" stroke-linecap="round" stroke-linejoin="round"/>
</g>
<defs>
<clipPath id="clip0_104_49">
<rect width="32" height="32" fill="white" transform="translate(0 0.859985)"/>
</clipPath>
</defs>
</svg>
