<svg width="33" height="33" viewBox="0 0 33 33" fill="none" xmlns="http://www.w3.org/2000/svg">
<g clip-path="url(#clip0_104_418)">
<path d="M24.38 0.859985H8.38C3.96173 0.859985 0.380005 4.44171 0.380005 8.85999V24.86C0.380005 29.2783 3.96173 32.86 8.38 32.86H24.38C28.7983 32.86 32.38 29.2783 32.38 24.86V8.85999C32.38 4.44171 28.7983 0.859985 24.38 0.859985Z" fill="#FF5A49"/>
<path fill-rule="evenodd" clip-rule="evenodd" d="M24.296 22.0613C23.9331 21.6693 23.9219 21.0727 24.2199 20.6293C25.2306 19.1259 25.8203 17.3159 25.8203 15.3682C25.8203 10.1536 21.5931 5.92639 16.3785 5.92639C11.1639 5.92639 6.93662 10.1536 6.93662 15.3682C6.93662 17.3164 7.52665 19.1268 8.53777 20.6304C8.83591 21.0738 8.82477 21.6705 8.46178 22.0625L7.18402 23.4425C6.78378 23.8748 6.80974 24.5496 7.242 24.9499L10.7641 28.211C11.1963 28.6113 11.8712 28.5853 12.2715 28.1531L15.0506 25.1515C15.2782 24.9058 15.6079 24.785 15.9424 24.8002C16.087 24.8068 16.2323 24.8101 16.3785 24.8101C16.5252 24.8101 16.6711 24.8067 16.8162 24.8001C17.1509 24.7849 17.4806 24.9056 17.7082 25.1514L20.4875 28.1531C20.8878 28.5853 21.5626 28.6113 21.9949 28.211L25.517 24.9499C25.9492 24.5496 25.9752 23.8748 25.5749 23.4425L24.296 22.0613Z" fill="white"/>
<path d="M16.38 20.9667C19.4765 20.9667 21.9867 18.4565 21.9867 15.36C21.9867 12.2634 19.4765 9.75323 16.38 9.75323C13.2835 9.75323 10.7733 12.2634 10.7733 15.36C10.7733 18.4565 13.2835 20.9667 16.38 20.9667Z" stroke="#222222" stroke-width="1.3"/>
</g>
<defs>
<clipPath id="clip0_104_418">
<rect width="32" height="32" fill="white" transform="translate(0.380005 0.859985)"/>
</clipPath>
</defs>
</svg>
