<svg width="32" height="33" viewBox="0 0 32 33" fill="none" xmlns="http://www.w3.org/2000/svg">
<g clip-path="url(#clip0_104_115)">
<path d="M24 0.859985H8C3.58172 0.859985 0 4.44171 0 8.85999V24.86C0 29.2783 3.58172 32.86 8 32.86H24C28.4183 32.86 32 29.2783 32 24.86V8.85999C32 4.44171 28.4183 0.859985 24 0.859985Z" fill="#FF5A49"/>
<path d="M16 27.8473C22.0751 27.8473 27 22.9224 27 16.8473C27 10.7722 22.0751 5.84729 16 5.84729C9.92487 5.84729 5 10.7722 5 16.8473C5 22.9224 9.92487 27.8473 16 27.8473Z" fill="white"/>
<path d="M20.5308 11.6742C20.9313 11.5264 21.3209 11.916 21.1731 12.3165L18.7115 18.984C18.61 19.2586 18.3933 19.4751 18.1185 19.5762L11.4664 22.0228C11.0663 22.17 10.6773 21.781 10.8245 21.3809L13.2711 14.7288C13.3722 14.4539 13.5886 14.2372 13.8633 14.1358L20.5308 11.6742Z" stroke="#222222" stroke-width="1.3" stroke-linecap="round" stroke-linejoin="round"/>
<path d="M18.4659 19.331L13.5162 14.3813" stroke="#222222" stroke-width="1.3" stroke-linecap="round" stroke-linejoin="round"/>
</g>
<defs>
<clipPath id="clip0_104_115">
<rect width="32" height="32" fill="white" transform="translate(0 0.859985)"/>
</clipPath>
</defs>
</svg>
