<svg width="32" height="33" viewBox="0 0 32 33" fill="none" xmlns="http://www.w3.org/2000/svg">
<g clip-path="url(#clip0_104_73)">
<path d="M24 0.859985H8C3.58172 0.859985 0 4.44171 0 8.85999V24.86C0 29.2783 3.58172 32.86 8 32.86H24C28.4183 32.86 32 29.2783 32 24.86V8.85999C32 4.44171 28.4183 0.859985 24 0.859985Z" fill="#3DBC5D"/>
<path fill-rule="evenodd" clip-rule="evenodd" d="M10.6293 9.57522C10.3352 9.75759 10.1562 10.079 10.1562 10.4251V22.7764C10.1562 23.3287 9.70853 23.7764 9.15625 23.7764H8.5C7.94772 23.7764 7.5 24.2241 7.5 24.7764V25.9639C7.5 26.5162 7.94772 26.9639 8.5 26.9639H23.5C24.0523 26.9639 24.5 26.5162 24.5 25.9639V24.7764C24.5 24.2241 24.0523 23.7764 23.5 23.7764H22.8438C22.2915 23.7764 21.8438 23.3287 21.8438 22.7764V10.4251C21.8438 10.079 21.6648 9.75759 21.3707 9.57522L16.527 6.57187C16.2042 6.37172 15.7958 6.37172 15.473 6.57187L10.6293 9.57522Z" fill="white"/>
<path d="M12.8125 16.2725L19.1875 12.0889" stroke="#222222" stroke-width="1.3" stroke-linecap="round" stroke-linejoin="round"/>
<path d="M12.8125 20.0576L19.1875 15.874" stroke="#222222" stroke-width="1.3" stroke-linecap="round" stroke-linejoin="round"/>
</g>
<defs>
<clipPath id="clip0_104_73">
<rect width="32" height="32" fill="white" transform="translate(0 0.859985)"/>
</clipPath>
</defs>
</svg>
