<svg width="32" height="33" viewBox="0 0 32 33" fill="none" xmlns="http://www.w3.org/2000/svg">
<g clip-path="url(#clip0_104_86)">
<path d="M24 0.859985H8C3.58172 0.859985 0 4.44171 0 8.85999V24.86C0 29.2783 3.58172 32.86 8 32.86H24C28.4183 32.86 32 29.2783 32 24.86V8.85999C32 4.44171 28.4183 0.859985 24 0.859985Z" fill="#00CCAE"/>
<path d="M10.001 7.66672C10.3098 6.59669 11.2892 5.85999 12.4029 5.85999H22.5C23.8807 5.85999 25 6.97928 25 8.35999V25.36C25 26.7407 23.8807 27.86 22.5 27.86H7.49626C5.83251 27.86 4.63293 26.2652 5.0943 24.6667L10.001 7.66672Z" fill="white"/>
<path d="M14.75 11.1876H19.6734C19.9496 11.1876 20.1734 11.4114 20.1734 11.6876V21.1876" stroke="#222222" stroke-width="1.3" stroke-linecap="round" stroke-linejoin="round"/>
<path d="M11.2841 23.6876L10.6019 21.5124C10.5514 21.3514 10.6716 21.1876 10.8404 21.1876H21.6596C21.8284 21.1876 21.9486 21.3514 21.8981 21.5124L21.2159 23.6876" stroke="#222222" stroke-width="1.3" stroke-linecap="round" stroke-linejoin="round"/>
<path d="M12.25 17.5582H17" stroke="#222222" stroke-width="1.3" stroke-linecap="round" stroke-linejoin="round"/>
<path d="M13 14.5582H17" stroke="#222222" stroke-width="1.3" stroke-linecap="round" stroke-linejoin="round"/>
</g>
<defs>
<clipPath id="clip0_104_86">
<rect width="32" height="32" fill="white" transform="translate(0 0.859985)"/>
</clipPath>
</defs>
</svg>
