<svg width="32" height="33" viewBox="0 0 32 33" fill="none" xmlns="http://www.w3.org/2000/svg">
<g clip-path="url(#clip0_104_42)">
<path d="M24 0.859985H8C3.58172 0.859985 0 4.44171 0 8.85999V24.86C0 29.2783 3.58172 32.86 8 32.86H24C28.4183 32.86 32 29.2783 32 24.86V8.85999C32 4.44171 28.4183 0.859985 24 0.859985Z" fill="#51ADFF"/>
<path fill-rule="evenodd" clip-rule="evenodd" d="M6.5 7.85999C5.67157 7.85999 5 8.53156 5 9.35999V22.36C5 23.1884 5.67157 23.86 6.5 23.86H7.1529C7.35056 23.86 7.5 24.0373 7.5 24.235C7.5 25.5467 8.56332 26.61 9.875 26.61C11.1867 26.61 12.25 25.5467 12.25 24.235C12.25 24.0373 12.3994 23.86 12.5971 23.86H16.5H18.5H20.1529C20.3506 23.86 20.5 24.0373 20.5 24.235C20.5 25.5467 21.5633 26.61 22.875 26.61C24.1867 26.61 25.25 25.5467 25.25 24.235C25.25 24.0373 25.3994 23.86 25.5971 23.86H26.5C27.3284 23.86 28 23.1884 28 22.36V17.6936C28 17.4599 27.9454 17.2295 27.8406 17.0207L25.9419 13.2384C25.5178 12.3934 24.6532 11.86 23.7077 11.86H20.5C20.2239 11.86 20 11.6361 20 11.36V9.35999C20 8.53156 19.3284 7.85999 18.5 7.85999H6.5Z" fill="white"/>
<path d="M20.5 13.86V16.86C20.5 17.6884 21.1716 18.36 22 18.36H25" stroke="#222222" stroke-width="1.3" stroke-linecap="round" stroke-linejoin="round"/>
</g>
<defs>
<clipPath id="clip0_104_42">
<rect width="32" height="32" fill="white" transform="translate(0 0.859985)"/>
</clipPath>
</defs>
</svg>
