<svg width="33" height="33" viewBox="0 0 33 33" fill="none" xmlns="http://www.w3.org/2000/svg">
<g clip-path="url(#clip0_104_363)">
<path d="M24.19 0.859985H8.19C3.77172 0.859985 0.190002 4.44171 0.190002 8.85999V24.86C0.190002 29.2783 3.77172 32.86 8.19 32.86H24.19C28.6083 32.86 32.19 29.2783 32.19 24.86V8.85999C32.19 4.44171 28.6083 0.859985 24.19 0.859985Z" fill="#4E7BF9"/>
<path d="M6.19 15.86C6.19 12.5463 8.87629 9.85999 12.19 9.85999H20.19C23.5037 9.85999 26.19 12.5463 26.19 15.86V16.86C26.19 22.3828 21.7128 26.86 16.19 26.86C10.6672 26.86 6.19 22.3828 6.19 16.86V15.86Z" fill="white"/>
<path d="M9.69 18.86C12.7276 18.86 15.19 16.3976 15.19 13.36C15.19 10.3224 12.7276 7.85999 9.69 7.85999C6.65244 7.85999 4.19 10.3224 4.19 13.36C4.19 16.3976 6.65244 18.86 9.69 18.86Z" fill="white"/>
<path d="M22.69 18.86C25.7276 18.86 28.19 16.3976 28.19 13.36C28.19 10.3224 25.7276 7.85999 22.69 7.85999C19.6524 7.85999 17.19 10.3224 17.19 13.36C17.19 16.3976 19.6524 18.86 22.69 18.86Z" fill="white"/>
<path fill-rule="evenodd" clip-rule="evenodd" d="M11.5765 20.86C12.5582 22.3666 14.2578 23.3625 16.19 23.3625C18.1223 23.3625 19.8219 22.3666 20.8035 20.86H20.7976C19.8165 22.3637 18.1193 23.3575 16.19 23.3575C14.2607 23.3575 12.5635 22.3637 11.5825 20.86H11.5765Z" fill="#222222"/>
<path d="M11.5765 20.86V20.21C11.338 20.21 11.1187 20.3406 11.005 20.5503C10.8914 20.76 10.9017 21.015 11.0319 21.2149L11.5765 20.86ZM20.8035 20.86L21.3481 21.2149C21.4783 21.015 21.4886 20.76 21.375 20.5503C21.2614 20.3406 21.042 20.21 20.8035 20.21V20.86ZM20.7976 20.86V20.21C20.578 20.21 20.3732 20.3209 20.2532 20.5048L20.7976 20.86ZM11.5825 20.86L12.1269 20.5048C12.0069 20.3209 11.8021 20.21 11.5825 20.21V20.86ZM16.19 22.7125C14.4867 22.7125 12.9879 21.8354 12.1211 20.5051L11.0319 21.2149C12.1285 22.8977 14.0289 24.0125 16.19 24.0125V22.7125ZM20.259 20.5051C19.3922 21.8354 17.8933 22.7125 16.19 22.7125V24.0125C18.3512 24.0125 20.2516 22.8977 21.3481 21.2149L20.259 20.5051ZM20.8035 20.21H20.7976V21.51H20.8035V20.21ZM16.19 24.0075C18.3481 24.0075 20.246 22.895 21.342 21.2152L20.2532 20.5048C19.3871 21.8324 17.8906 22.7075 16.19 22.7075V24.0075ZM11.0381 21.2152C12.134 22.895 14.0319 24.0075 16.19 24.0075V22.7075C14.4895 22.7075 12.993 21.8324 12.1269 20.5048L11.0381 21.2152ZM11.5825 20.21H11.5765V21.51H11.5825V20.21Z" fill="#222222"/>
<path d="M22.69 16.86C24.623 16.86 26.19 15.293 26.19 13.36C26.19 11.427 24.623 9.85999 22.69 9.85999C20.757 9.85999 19.19 11.427 19.19 13.36C19.19 15.293 20.757 16.86 22.69 16.86Z" stroke="#222222" stroke-width="1.3"/>
<path d="M9.69 16.86C11.623 16.86 13.19 15.293 13.19 13.36C13.19 11.427 11.623 9.85999 9.69 9.85999C7.75701 9.85999 6.19 11.427 6.19 13.36C6.19 15.293 7.75701 16.86 9.69 16.86Z" stroke="#222222" stroke-width="1.3"/>
<path d="M25.69 11.61C25.69 12.3003 25.1304 12.86 24.44 12.86C23.7496 12.86 23.19 12.3003 23.19 11.61C23.19 10.9196 23.7496 10.36 24.44 10.36C25.1304 10.36 25.69 10.9196 25.69 11.61Z" fill="#222222"/>
<path d="M12.69 11.61C12.69 12.3003 12.1304 12.86 11.44 12.86C10.7496 12.86 10.19 12.3003 10.19 11.61C10.19 10.9196 10.7496 10.36 11.44 10.36C12.1304 10.36 12.69 10.9196 12.69 11.61Z" fill="#222222"/>
</g>
<defs>
<clipPath id="clip0_104_363">
<rect width="32" height="32" fill="white" transform="translate(0.190002 0.859985)"/>
</clipPath>
</defs>
</svg>
