<svg width="33" height="33" viewBox="0 0 33 33" fill="none" xmlns="http://www.w3.org/2000/svg">
<g clip-path="url(#clip0_104_344)">
<path d="M24.19 0.859985H8.19C3.77172 0.859985 0.190002 4.44171 0.190002 8.85999V24.86C0.190002 29.2783 3.77172 32.86 8.19 32.86H24.19C28.6083 32.86 32.19 29.2783 32.19 24.86V8.85999C32.19 4.44171 28.6083 0.859985 24.19 0.859985Z" fill="#51ADFF"/>
<path fill-rule="evenodd" clip-rule="evenodd" d="M27.19 9.99332C27.19 8.81512 26.2349 7.85999 25.0567 7.85999H20.69C19.8616 7.85999 19.19 8.53156 19.19 9.35999C19.19 10.1884 18.5184 10.86 17.69 10.86H13.19C12.0854 10.86 11.19 11.7554 11.19 12.86C11.19 13.9646 10.2946 14.86 9.19 14.86H7.32333C6.14513 14.86 5.19 15.8151 5.19 16.9933V24.7267C5.19 25.9049 6.14513 26.86 7.32333 26.86H11.19H12.19H19.19H20.19H25.0567C26.2349 26.86 27.19 25.9049 27.19 24.7267V9.99332Z" fill="white"/>
<path d="M20.09 13.4917V23.8396" stroke="#222222" stroke-width="1.5" stroke-linecap="round" stroke-linejoin="round"/>
<path d="M13.09 17.1499V23.8393" stroke="#222222" stroke-width="1.5" stroke-linecap="round" stroke-linejoin="round"/>
</g>
<defs>
<clipPath id="clip0_104_344">
<rect width="32" height="32" fill="white" transform="translate(0.190002 0.859985)"/>
</clipPath>
</defs>
</svg>
