<svg width="33" height="33" viewBox="0 0 33 33" fill="none" xmlns="http://www.w3.org/2000/svg">
<g clip-path="url(#clip0_104_352)">
<path d="M24.19 0.859985H8.19C3.77172 0.859985 0.190002 4.44171 0.190002 8.85999V24.86C0.190002 29.2783 3.77172 32.86 8.19 32.86H24.19C28.6083 32.86 32.19 29.2783 32.19 24.86V8.85999C32.19 4.44171 28.6083 0.859985 24.19 0.859985Z" fill="#FF8227"/>
<path d="M16.19 27.8473C22.2651 27.8473 27.19 22.9224 27.19 16.8473C27.19 10.7722 22.2651 5.84729 16.19 5.84729C10.1149 5.84729 5.19 10.7722 5.19 16.8473C5.19 22.9224 10.1149 27.8473 16.19 27.8473Z" fill="white"/>
<path d="M11.19 16.691L14.0735 19.714C14.6674 20.3366 15.6622 20.3331 16.2516 19.7063L22.69 12.86" stroke="#222222" stroke-width="1.4" stroke-linecap="round" stroke-linejoin="round"/>
</g>
<defs>
<clipPath id="clip0_104_352">
<rect width="32" height="32" fill="white" transform="translate(0.190002 0.859985)"/>
</clipPath>
</defs>
</svg>
