<svg width="33" height="33" viewBox="0 0 33 33" fill="none" xmlns="http://www.w3.org/2000/svg">
<g clip-path="url(#clip0_104_320)">
<path d="M24.19 0.859985H8.19C3.77172 0.859985 0.190002 4.44171 0.190002 8.85999V24.86C0.190002 29.2783 3.77172 32.86 8.19 32.86H24.19C28.6083 32.86 32.19 29.2783 32.19 24.86V8.85999C32.19 4.44171 28.6083 0.859985 24.19 0.859985Z" fill="#51ADFF"/>
<path fill-rule="evenodd" clip-rule="evenodd" d="M7.32333 7.85999C6.14513 7.85999 5.19 8.81512 5.19 9.99332V17.7267C5.19 18.9049 6.14513 19.86 7.32333 19.86H8.69C8.96614 19.86 9.19 20.0839 9.19 20.36V23.7267C9.19 24.9049 10.1451 25.86 11.3233 25.86H25.0567C26.2349 25.86 27.19 24.9049 27.19 23.7267V15.9933C27.19 14.8151 26.2349 13.86 25.0567 13.86H23.69C23.4139 13.86 23.19 13.6361 23.19 13.36V9.99332C23.19 8.81512 22.2349 7.85999 21.0567 7.85999H7.32333Z" fill="white"/>
<path d="M12.59 21.26H21.5702C22.6748 21.26 23.5702 20.3646 23.5702 19.26V17.26" stroke="#222222" stroke-width="1.3" stroke-linecap="round" stroke-linejoin="round"/>
<path d="M14.19 17.0757C15.966 17.0757 17.4058 15.636 17.4058 13.86C17.4058 12.084 15.966 10.6442 14.19 10.6442C12.414 10.6442 10.9742 12.084 10.9742 13.86C10.9742 15.636 12.414 17.0757 14.19 17.0757Z" stroke="#222222" stroke-width="1.3"/>
</g>
<defs>
<clipPath id="clip0_104_320">
<rect width="32" height="32" fill="white" transform="translate(0.190002 0.859985)"/>
</clipPath>
</defs>
</svg>
