<svg width="33" height="33" viewBox="0 0 33 33" fill="none" xmlns="http://www.w3.org/2000/svg">
<g clip-path="url(#clip0_104_328)">
<path d="M24.19 0.859985H8.19C3.77172 0.859985 0.190002 4.44171 0.190002 8.85999V24.86C0.190002 29.2783 3.77172 32.86 8.19 32.86H24.19C28.6083 32.86 32.19 29.2783 32.19 24.86V8.85999C32.19 4.44171 28.6083 0.859985 24.19 0.859985Z" fill="#3DBC5D"/>
<path fill-rule="evenodd" clip-rule="evenodd" d="M5.5834 13.678C3.82604 15.4354 3.82604 18.2846 5.5834 20.042L13.008 27.4666C14.7654 29.224 17.6146 29.224 19.372 27.4666L26.7966 20.042C28.554 18.2846 28.554 15.4354 26.7966 13.678L19.372 6.25338C17.6146 4.49602 14.7654 4.49602 13.008 6.25338L5.5834 13.678Z" fill="white"/>
<path fill-rule="evenodd" clip-rule="evenodd" d="M23.8389 15.2332C23.8389 14.1008 22.9214 13.1832 21.789 13.1832C20.6566 13.1832 19.739 14.1008 19.739 15.2332C19.739 16.3656 20.6566 17.2831 21.789 17.2831C22.9214 17.2831 23.8389 16.3656 23.8389 15.2332Z" stroke="#222222" stroke-width="1.3"/>
<path fill-rule="evenodd" clip-rule="evenodd" d="M18.1187 21.2471C18.1187 19.9698 17.0827 18.9346 15.8062 18.9346C14.529 18.9346 13.4937 19.9698 13.4937 21.2471C13.4937 22.5244 14.529 23.5596 15.8062 23.5596C17.0827 23.5596 18.1187 22.5244 18.1187 21.2471Z" stroke="#222222" stroke-width="1.3"/>
<path fill-rule="evenodd" clip-rule="evenodd" d="M12.3282 16.7272C12.3282 15.5947 11.4106 14.6772 10.2782 14.6772C9.14579 14.6772 8.22821 15.5947 8.22821 16.7272C8.22821 17.8596 9.14579 18.7772 10.2782 18.7772C11.4106 18.7772 12.3282 17.8596 12.3282 16.7272Z" stroke="#222222" stroke-width="1.3"/>
<path d="M17.4582 19.6267L20.3722 16.7126" stroke="#222222" stroke-width="1.3"/>
<path d="M13.8182 20.065L11.8118 18.0587" stroke="#222222" stroke-width="1.3"/>
</g>
<defs>
<clipPath id="clip0_104_328">
<rect width="32" height="32" fill="white" transform="translate(0.190002 0.859985)"/>
</clipPath>
</defs>
</svg>
