<svg width="32" height="33" viewBox="0 0 32 33" fill="none" xmlns="http://www.w3.org/2000/svg">
<g clip-path="url(#clip0_104_62)">
<path d="M24 0.859985H8C3.58172 0.859985 0 4.44171 0 8.85999V24.86C0 29.2783 3.58172 32.86 8 32.86H24C28.4183 32.86 32 29.2783 32 24.86V8.85999C32 4.44171 28.4183 0.859985 24 0.859985Z" fill="#51ADFF"/>
<path d="M8.13333 6.84729C6.95513 6.84729 6 7.80242 6 8.98063V23.114C6 25.1758 7.67147 26.8473 9.73333 26.8473H13.1481C13.5017 26.8473 13.8408 26.9878 14.0909 27.2378L15.0591 28.2061C15.5798 28.7268 16.4241 28.7268 16.9448 28.2061L17.913 27.2378C18.1631 26.9878 18.5022 26.8473 18.8558 26.8473H22.2667C24.3285 26.8473 26 25.1758 26 23.114V8.98063C26 7.80242 25.0449 6.84729 23.8667 6.84729H8.13333Z" fill="white"/>
<path d="M18.8378 21.239L18.8564 20.5892C18.8502 20.5891 18.844 20.589 18.8378 20.589V21.239ZM18.5013 14.1499L17.9225 14.4456C18.0467 14.6888 18.3098 14.8284 18.5809 14.795L18.5013 14.1499ZM12.0285 15.1035L12.1472 15.7426C12.413 15.6932 12.6204 15.4845 12.6682 15.2185L12.0285 15.1035ZM12.6949 21.239V20.589C12.6881 20.589 12.6814 20.5891 12.6747 20.5893L12.6949 21.239ZM18.8193 21.8887C18.8598 21.8899 18.9005 21.8905 18.9412 21.8905V20.5905C18.9128 20.5905 18.8845 20.5901 18.8564 20.5892L18.8193 21.8887ZM18.9412 21.8905C21.2657 21.8905 23.15 20.0061 23.15 17.6817H21.85C21.85 19.2882 20.5477 20.5905 18.9412 20.5905V21.8905ZM23.15 17.6817C23.15 15.3573 21.2657 13.4729 18.9412 13.4729V14.7729C20.5477 14.7729 21.85 16.0752 21.85 17.6817H23.15ZM18.9412 13.4729C18.7656 13.4729 18.5923 13.4837 18.4218 13.5047L18.5809 14.795C18.6987 14.7805 18.8189 14.7729 18.9412 14.7729V13.4729ZM19.0802 13.8542C18.4023 12.5271 17.0209 11.6163 15.4256 11.6163V12.9162C16.5137 12.9162 17.4581 13.5364 17.9225 14.4456L19.0802 13.8542ZM15.4256 11.6163C13.4088 11.6163 11.7332 13.0712 11.3887 14.9886L12.6682 15.2185C12.9034 13.9095 14.0492 12.9162 15.4256 12.9162V11.6163ZM11.9097 14.4645C10.17 14.7877 8.85275 16.3123 8.85275 18.1459H10.1527C10.1527 16.95 11.0121 15.9535 12.1472 15.7426L11.9097 14.4645ZM8.85275 18.1459C8.85275 20.214 10.5292 21.8905 12.5973 21.8905V20.5905C11.2472 20.5905 10.1527 19.496 10.1527 18.1459H8.85275ZM12.5973 21.8905C12.6367 21.8905 12.6759 21.8899 12.715 21.8887L12.6747 20.5893C12.649 20.5901 12.6232 20.5905 12.5973 20.5905V21.8905ZM12.6949 21.889H18.8378V20.589H12.6949V21.889Z" fill="#222222"/>
</g>
<defs>
<clipPath id="clip0_104_62">
<rect width="32" height="32" fill="white" transform="translate(0 0.859985)"/>
</clipPath>
</defs>
</svg>
