<svg width="33" height="33" viewBox="0 0 33 33" fill="none" xmlns="http://www.w3.org/2000/svg">
<g clip-path="url(#clip0_104_212)">
<path d="M24.19 0.859985H8.19C3.77172 0.859985 0.190002 4.44171 0.190002 8.85999V24.86C0.190002 29.2783 3.77172 32.86 8.19 32.86H24.19C28.6083 32.86 32.19 29.2783 32.19 24.86V8.85999C32.19 4.44171 28.6083 0.859985 24.19 0.859985Z" fill="#51ADFF"/>
<path fill-rule="evenodd" clip-rule="evenodd" d="M6.16031 8.39758C5.42906 8.39758 4.9451 9.15677 5.25376 9.81967L6.53175 12.5645C6.61461 12.7424 6.70043 12.9262 6.70043 13.1225V24.7224C6.70043 25.606 7.41677 26.3224 8.30043 26.3224H24.0796C24.9632 26.3224 25.6796 25.606 25.6796 24.7224V13.1225C25.6796 12.9262 25.7654 12.7424 25.8482 12.5645L27.1262 9.81968C27.4349 9.15677 26.9509 8.39758 26.2197 8.39758H6.16031Z" fill="white"/>
<path d="M21.1385 12.8335C21.2183 12.5879 21.5659 12.5879 21.6457 12.8335L21.932 13.7144C21.9677 13.8243 22.07 13.8987 22.1856 13.8987H23.1118C23.3701 13.8987 23.4775 14.2293 23.2685 14.3811L22.5192 14.9255C22.4257 14.9934 22.3866 15.1138 22.4223 15.2237L22.7086 16.1046C22.7884 16.3503 22.5072 16.5546 22.2982 16.4027L21.5489 15.8583C21.4554 15.7904 21.3288 15.7904 21.2354 15.8583L20.486 16.4027C20.277 16.5546 19.9958 16.3503 20.0757 16.1046L20.3619 15.2237C20.3976 15.1138 20.3585 14.9934 20.265 14.9255L19.5157 14.3811C19.3067 14.2293 19.4141 13.8987 19.6724 13.8987H20.5987C20.7142 13.8987 20.8166 13.8243 20.8523 13.7144L21.1385 12.8335Z" fill="#222222"/>
<path d="M15.7965 12.8335C15.8763 12.5879 16.2239 12.5879 16.3037 12.8335L16.5899 13.7144C16.6256 13.8243 16.728 13.8987 16.8436 13.8987H17.7698C18.0281 13.8987 18.1355 14.2293 17.9265 14.3811L17.1772 14.9255C17.0837 14.9934 17.0446 15.1138 17.0803 15.2237L17.3665 16.1046C17.4464 16.3503 17.1652 16.5546 16.9562 16.4027L16.2068 15.8583C16.1134 15.7904 15.9868 15.7904 15.8934 15.8583L15.144 16.4027C14.935 16.5546 14.6538 16.3503 14.7337 16.1046L15.0199 15.2237C15.0556 15.1138 15.0165 14.9934 14.923 14.9255L14.1737 14.3811C13.9647 14.2293 14.0721 13.8987 14.3304 13.8987H15.2567C15.3722 13.8987 15.4746 13.8243 15.5103 13.7144L15.7965 12.8335Z" fill="#222222"/>
<path d="M10.4548 12.8333C10.5346 12.5876 10.8822 12.5876 10.962 12.8333L11.2483 13.7142C11.284 13.8241 11.3864 13.8985 11.5019 13.8985H12.4281C12.6864 13.8985 12.7939 14.229 12.5849 14.3809L11.8355 14.9253C11.7421 14.9932 11.7029 15.1136 11.7386 15.2234L12.0249 16.1043C12.1047 16.35 11.8235 16.5543 11.6145 16.4025L10.8652 15.8581C10.7717 15.7902 10.6452 15.7902 10.5517 15.8581L9.80234 16.4025C9.59335 16.5543 9.31215 16.35 9.39198 16.1043L9.6782 15.2234C9.7139 15.1136 9.67479 14.9932 9.58133 14.9253L8.83199 14.3809C8.623 14.229 8.7304 13.8985 8.98873 13.8985H9.91497C10.0305 13.8985 10.1329 13.8241 10.1686 13.7142L10.4548 12.8333Z" fill="#222222"/>
<path d="M19.3532 26.3223V22.1047C19.3532 20.3578 17.937 18.9415 16.19 18.9415C14.443 18.9415 13.0268 20.3578 13.0268 22.1047V26.3223" stroke="#222222" stroke-width="1.3" stroke-linejoin="round"/>
</g>
<defs>
<clipPath id="clip0_104_212">
<rect width="32" height="32" fill="white" transform="translate(0.190002 0.859985)"/>
</clipPath>
</defs>
</svg>
