<svg width="32" height="33" viewBox="0 0 32 33" fill="none" xmlns="http://www.w3.org/2000/svg">
<g clip-path="url(#clip0_104_128)">
<path d="M24 0.859985H8C3.58172 0.859985 0 4.44171 0 8.85999V24.86C0 29.2783 3.58172 32.86 8 32.86H24C28.4183 32.86 32 29.2783 32 24.86V8.85999C32 4.44171 28.4183 0.859985 24 0.859985Z" fill="#51ADFF"/>
<path d="M5.06761 23.8777C4.89556 25.0825 5.83047 26.1604 7.04753 26.1604H24.9524C26.1695 26.1604 27.1044 25.0825 26.9324 23.8777L24.8474 9.2769C24.7067 8.29155 23.8628 7.55963 22.8674 7.55963H9.13252C8.13718 7.55963 7.29331 8.29155 7.1526 9.2769L5.06761 23.8777Z" fill="white"/>
<path d="M21.6292 11.6931C20.8265 14.0982 18.6094 15.8266 16 15.8266C13.3907 15.8266 11.1736 14.0982 10.3708 11.6931" stroke="#222222" stroke-width="1.3" stroke-linecap="round" stroke-linejoin="round"/>
</g>
<defs>
<clipPath id="clip0_104_128">
<rect width="32" height="32" fill="white" transform="translate(0 0.859985)"/>
</clipPath>
</defs>
</svg>
