<svg width="32" height="33" viewBox="0 0 32 33" fill="none" xmlns="http://www.w3.org/2000/svg">
<g clip-path="url(#clip0_104_139)">
<path d="M24 0.859985H8C3.58172 0.859985 0 4.44171 0 8.85999V24.86C0 29.2783 3.58172 32.86 8 32.86H24C28.4183 32.86 32 29.2783 32 24.86V8.85999C32 4.44171 28.4183 0.859985 24 0.859985Z" fill="#51ADFF"/>
<path d="M22 6.85999H10C7.79086 6.85999 6 8.65085 6 10.86V22.86C6 25.0691 7.79086 26.86 10 26.86H22C24.2091 26.86 26 25.0691 26 22.86V10.86C26 8.65085 24.2091 6.85999 22 6.85999Z" fill="white"/>
<path d="M11.5 17.36V14.36" stroke="#222222" stroke-width="1.1" stroke-linecap="round" stroke-linejoin="round"/>
<path d="M16.5 21.36V19.36" stroke="#222222" stroke-width="1.1" stroke-linecap="round" stroke-linejoin="round"/>
<path d="M20.5 19.36H22.5" stroke="#222222" stroke-width="1.1" stroke-linecap="round" stroke-linejoin="round"/>
<path d="M11.5 19.36H14.5" stroke="#222222" stroke-width="1.1" stroke-linecap="round" stroke-linejoin="round"/>
<path d="M18.5 17.36H21" stroke="#222222" stroke-width="1.1" stroke-linecap="round" stroke-linejoin="round"/>
<path d="M13.5 17.36H16.2334C16.3806 17.36 16.5 17.2406 16.5 17.0933V15.36" stroke="#222222" stroke-width="1.1" stroke-linecap="round" stroke-linejoin="round"/>
<path d="M15.5 12.36H18.5" stroke="#222222" stroke-width="1.1" stroke-linecap="round" stroke-linejoin="round"/>
<path d="M13.5 15.36H14.5" stroke="#222222" stroke-width="1.1" stroke-linecap="round" stroke-linejoin="round"/>
<path d="M22.5 15.36H20.7667C20.6194 15.36 20.5 15.2406 20.5 15.0933V12.86" stroke="#222222" stroke-width="1.1" stroke-linecap="round" stroke-linejoin="round"/>
<path d="M11.5 10.36H13.5M13.5 10.36H16.5M13.5 10.36V13.36" stroke="#222222" stroke-width="1.1" stroke-linecap="round" stroke-linejoin="round"/>
<path d="M20.5 10.36H22C22.2761 10.36 22.5 10.5838 22.5 10.86V13.36" stroke="#222222" stroke-width="1.1" stroke-linecap="round" stroke-linejoin="round"/>
<path d="M9.5 10.36V22.2934C9.5 22.8825 9.97756 23.3601 10.5667 23.3601H22.5" stroke="#222222" stroke-width="1.1" stroke-linecap="round" stroke-linejoin="round"/>
<path d="M18.5 10.9364C18.8183 10.9364 19.0763 10.6783 19.0763 10.3601C19.0763 10.0418 18.8183 9.78375 18.5 9.78375C18.1817 9.78375 17.9237 10.0418 17.9237 10.3601C17.9237 10.6783 18.1817 10.9364 18.5 10.9364Z" fill="#222222"/>
<path d="M18.5 15.9364C18.8183 15.9364 19.0763 15.6783 19.0763 15.3601C19.0763 15.0418 18.8183 14.7838 18.5 14.7838C18.1817 14.7838 17.9237 15.0418 17.9237 15.3601C17.9237 15.6783 18.1817 15.9364 18.5 15.9364Z" fill="#222222"/>
<path d="M18.5 19.9364C18.8183 19.9364 19.0763 19.6784 19.0763 19.3601C19.0763 19.0418 18.8183 18.7838 18.5 18.7838C18.1817 18.7838 17.9237 19.0418 17.9237 19.3601C17.9237 19.6784 18.1817 19.9364 18.5 19.9364Z" fill="#222222"/>
<path d="M20.5 21.9364C20.8183 21.9364 21.0763 21.6784 21.0763 21.3601C21.0763 21.0418 20.8183 20.7838 20.5 20.7838C20.1817 20.7838 19.9237 21.0418 19.9237 21.3601C19.9237 21.6784 20.1817 21.9364 20.5 21.9364Z" fill="#222222"/>
<path d="M11.5 21.9364C11.8183 21.9364 12.0763 21.6784 12.0763 21.3601C12.0763 21.0418 11.8183 20.7838 11.5 20.7838C11.1817 20.7838 10.9237 21.0418 10.9237 21.3601C10.9237 21.6784 11.1817 21.9364 11.5 21.9364Z" fill="#222222"/>
<path d="M11.5 12.9364C11.8183 12.9364 12.0763 12.6783 12.0763 12.3601C12.0763 12.0418 11.8183 11.7838 11.5 11.7838C11.1817 11.7838 10.9237 12.0418 10.9237 12.3601C10.9237 12.6783 11.1817 12.9364 11.5 12.9364Z" fill="#222222"/>
<path d="M13.5 21.9364C13.8183 21.9364 14.0763 21.6784 14.0763 21.3601C14.0763 21.0418 13.8183 20.7838 13.5 20.7838C13.1817 20.7838 12.9237 21.0418 12.9237 21.3601C12.9237 21.6784 13.1817 21.9364 13.5 21.9364Z" fill="#222222"/>
</g>
<defs>
<clipPath id="clip0_104_139">
<rect width="32" height="32" fill="white" transform="translate(0 0.859985)"/>
</clipPath>
</defs>
</svg>
