<svg width="33" height="33" viewBox="0 0 33 33" fill="none" xmlns="http://www.w3.org/2000/svg">
<g clip-path="url(#clip0_104_283)">
<path d="M24.19 0.859985H8.19C3.77172 0.859985 0.190002 4.44171 0.190002 8.85999V24.86C0.190002 29.2783 3.77172 32.86 8.19 32.86H24.19C28.6083 32.86 32.19 29.2783 32.19 24.86V8.85999C32.19 4.44171 28.6083 0.859985 24.19 0.859985Z" fill="#00CCAE"/>
<path fill-rule="evenodd" clip-rule="evenodd" d="M6.71233 9.78476C6.09674 10.0236 5.6911 10.6161 5.6911 11.2765V13.0889C5.6911 23.1972 13.6152 27.1563 15.6907 28.0199C16.0096 28.1526 16.3572 28.1527 16.6762 28.02C18.752 27.1565 26.6783 23.1974 26.6764 13.0889C26.6933 12.7405 26.6928 11.9358 26.6887 11.2611C26.6847 10.6084 26.2801 10.0264 25.6715 9.79035L17.4373 6.59633C16.6307 6.28344 15.7362 6.28348 14.9296 6.59644L6.71233 9.78476Z" fill="white"/>
<path fill-rule="evenodd" clip-rule="evenodd" d="M16.64 10.8633C16.4914 10.8523 16.3414 10.8467 16.19 10.8467C12.8689 10.8467 10.1766 13.539 10.1766 16.86C10.1766 20.1811 12.8689 22.8734 16.19 22.8734C16.3414 22.8734 16.4914 22.8678 16.64 22.8568V22.83C16.4914 22.8411 16.3414 22.8467 16.19 22.8467C12.8837 22.8467 10.2033 20.1664 10.2033 16.86C10.2033 13.5537 12.8837 10.8734 16.19 10.8734C16.3414 10.8734 16.4914 10.879 16.64 10.89V10.8633Z" fill="#222222"/>
<path d="M16.64 10.8633H17.29C17.29 10.5229 17.0274 10.2401 16.6879 10.215L16.64 10.8633ZM16.64 22.8568L16.6879 23.505C17.0274 23.4799 17.29 23.1972 17.29 22.8568H16.64ZM16.64 22.83H17.29C17.29 22.6493 17.2147 22.4767 17.0823 22.3537C16.9498 22.2307 16.7721 22.1684 16.5918 22.1818L16.64 22.83ZM16.64 10.89L16.5918 11.5382C16.7721 11.5516 16.9498 11.4894 17.0823 11.3664C17.2147 11.2434 17.29 11.0708 17.29 10.89H16.64ZM16.19 11.4967C16.3254 11.4967 16.4594 11.5017 16.592 11.5115L16.6879 10.215C16.5234 10.2028 16.3574 10.1967 16.19 10.1967V11.4967ZM10.8267 16.86C10.8267 13.8979 13.2279 11.4967 16.19 11.4967V10.1967C12.5099 10.1967 9.52667 13.18 9.52667 16.86H10.8267ZM16.19 22.2234C13.2279 22.2234 10.8267 19.8221 10.8267 16.86H9.52667C9.52667 20.5401 12.5099 23.5234 16.19 23.5234V22.2234ZM16.592 22.2085C16.4594 22.2184 16.3253 22.2234 16.19 22.2234V23.5234C16.3574 23.5234 16.5234 23.5172 16.6879 23.505L16.592 22.2085ZM17.29 22.8568V22.83H15.99V22.8568H17.29ZM16.19 23.4967C16.3575 23.4967 16.5236 23.4905 16.6882 23.4782L16.5918 22.1818C16.4593 22.1917 16.3253 22.1967 16.19 22.1967V23.4967ZM9.55334 16.86C9.55334 20.5254 12.5247 23.4967 16.19 23.4967V22.1967C13.2426 22.1967 10.8533 19.8074 10.8533 16.86H9.55334ZM16.19 10.2233C12.5247 10.2233 9.55334 13.1947 9.55334 16.86H10.8533C10.8533 13.9127 13.2426 11.5234 16.19 11.5234V10.2233ZM16.6882 10.2418C16.5236 10.2295 16.3575 10.2233 16.19 10.2233V11.5234C16.3253 11.5234 16.4593 11.5284 16.5918 11.5382L16.6882 10.2418ZM17.29 10.89V10.8633H15.99V10.89H17.29Z" fill="#222222"/>
<path fill-rule="evenodd" clip-rule="evenodd" d="M16.44 13.4417C16.3574 13.4358 16.2741 13.4328 16.19 13.4328C14.2972 13.4328 12.7627 14.9672 12.7627 16.86C12.7627 18.7528 14.2972 20.2873 16.19 20.2873C16.2741 20.2873 16.3574 20.2843 16.44 20.2783V20.2516C16.3574 20.2576 16.2741 20.2606 16.19 20.2606C14.3119 20.2606 12.7894 18.7381 12.7894 16.86C12.7894 14.9819 14.3119 13.4594 16.19 13.4594C16.2741 13.4594 16.3574 13.4625 16.44 13.4685V13.4417Z" fill="#222222"/>
<path d="M16.44 13.4417H17.09C17.09 13.1009 16.8267 12.8179 16.4867 12.7934L16.44 13.4417ZM16.44 20.2783L16.4867 20.9266C16.8267 20.9021 17.09 20.6192 17.09 20.2783H16.44ZM16.44 20.2516H17.09C17.09 20.071 17.0149 19.8986 16.8826 19.7756C16.7504 19.6526 16.573 19.5902 16.3929 19.6033L16.44 20.2516ZM16.44 13.4685L16.3929 14.1168C16.573 14.1298 16.7504 14.0674 16.8826 13.9445C17.0149 13.8215 17.09 13.649 17.09 13.4685H16.44ZM16.19 14.0828C16.2585 14.0828 16.3262 14.0852 16.3933 14.0901L16.4867 12.7934C16.3886 12.7863 16.2897 12.7828 16.19 12.7828V14.0828ZM13.4127 16.86C13.4127 15.3262 14.6561 14.0828 16.19 14.0828V12.7828C13.9382 12.7828 12.1127 14.6082 12.1127 16.86H13.4127ZM16.19 19.6373C14.6561 19.6373 13.4127 18.3939 13.4127 16.86H12.1127C12.1127 19.1118 13.9382 20.9373 16.19 20.9373V19.6373ZM16.3933 19.63C16.3262 19.6348 16.2585 19.6373 16.19 19.6373V20.9373C16.2897 20.9373 16.3886 20.9337 16.4867 20.9266L16.3933 19.63ZM17.09 20.2783V20.2516H15.79V20.2783H17.09ZM16.19 20.9106C16.2898 20.9106 16.3889 20.907 16.4871 20.8999L16.3929 19.6033C16.326 19.6081 16.2583 19.6106 16.19 19.6106V20.9106ZM12.1394 16.86C12.1394 19.0971 13.9529 20.9106 16.19 20.9106V19.6106C14.6709 19.6106 13.4394 18.3791 13.4394 16.86H12.1394ZM16.19 12.8094C13.9529 12.8094 12.1394 14.6229 12.1394 16.86H13.4394C13.4394 15.3409 14.6709 14.1094 16.19 14.1094V12.8094ZM16.4871 12.8202C16.3889 12.813 16.2898 12.8094 16.19 12.8094V14.1094C16.2583 14.1094 16.326 14.1119 16.3929 14.1168L16.4871 12.8202ZM17.09 13.4685V13.4417H15.79V13.4685H17.09Z" fill="#222222"/>
</g>
<defs>
<clipPath id="clip0_104_283">
<rect width="32" height="32" fill="white" transform="translate(0.190002 0.859985)"/>
</clipPath>
</defs>
</svg>
