<svg width="32" height="33" viewBox="0 0 32 33" fill="none" xmlns="http://www.w3.org/2000/svg">
<g clip-path="url(#clip0_104_164)">
<path d="M24 0.859985H8C3.58172 0.859985 0 4.44171 0 8.85999V24.86C0 29.2783 3.58172 32.86 8 32.86H24C28.4183 32.86 32 29.2783 32 24.86V8.85999C32 4.44171 28.4183 0.859985 24 0.859985Z" fill="#51ADFF"/>
<path fill-rule="evenodd" clip-rule="evenodd" d="M7.31391 14.441L17.6212 5.53907C17.9847 5.22515 18.5387 5.55437 18.4366 6.0237L17.6078 9.83641C17.5138 10.2687 17.9862 10.6011 18.3614 10.3666L24.6918 6.41008C25.128 6.13745 25.6421 6.62192 25.3958 7.07352L21.776 13.7098C21.5743 14.0795 21.8919 14.5176 22.306 14.4409L27.4447 13.4893C27.9073 13.4036 28.2214 13.9461 27.9169 14.3046L18.6838 25.1734C18.6677 25.1923 18.6505 25.2097 18.6324 25.2256C17.1955 26.9582 15.0264 28.0617 12.5996 28.0617C8.27307 28.0617 4.76572 24.5544 4.76572 20.2278C4.76572 17.9656 5.72462 15.9273 7.25816 14.4973C7.27495 14.4774 7.29353 14.4585 7.31391 14.441Z" fill="white"/>
<path d="M12.3198 25.2638C14.9466 25.2638 17.0761 23.1343 17.0761 20.5075C17.0761 17.8807 14.9466 15.7512 12.3198 15.7512C9.69297 15.7512 7.56351 17.8807 7.56351 20.5075C7.56351 23.1343 9.69297 25.2638 12.3198 25.2638Z" stroke="#222222" stroke-width="1.3"/>
</g>
<defs>
<clipPath id="clip0_104_164">
<rect width="32" height="32" fill="white" transform="translate(0 0.859985)"/>
</clipPath>
</defs>
</svg>
