<svg width="32" height="33" viewBox="0 0 32 33" fill="none" xmlns="http://www.w3.org/2000/svg">
<g clip-path="url(#clip0_104_184)">
<path d="M24 0.859985H8C3.58172 0.859985 0 4.44171 0 8.85999V24.86C0 29.2783 3.58172 32.86 8 32.86H24C28.4183 32.86 32 29.2783 32 24.86V8.85999C32 4.44171 28.4183 0.859985 24 0.859985Z" fill="#FF8227"/>
<path d="M16 27.8473C22.0751 27.8473 27 22.9224 27 16.8473C27 10.7722 22.0751 5.84729 16 5.84729C9.92487 5.84729 5 10.7722 5 16.8473C5 22.9224 9.92487 27.8473 16 27.8473Z" fill="white"/>
<path d="M11.0227 15.2751L13.3981 17.7158C13.9899 18.3239 14.9679 18.3204 15.5554 17.7081L21.0227 12.01" stroke="#222222" stroke-width="1.3" stroke-linecap="round" stroke-linejoin="round"/>
<path d="M11.0227 18.9568L12.873 20.7753C13.8506 21.7362 15.4196 21.7306 16.3904 20.7629L21.4773 15.6918" stroke="#222222" stroke-width="1.3" stroke-linecap="round" stroke-linejoin="round"/>
</g>
<defs>
<clipPath id="clip0_104_184">
<rect width="32" height="32" fill="white" transform="translate(0 0.859985)"/>
</clipPath>
</defs>
</svg>
