<svg width="32" height="33" viewBox="0 0 32 33" fill="none" xmlns="http://www.w3.org/2000/svg">
<g clip-path="url(#clip0_104_197)">
<path d="M24 0.859985H8C3.58172 0.859985 0 4.44171 0 8.85999V24.86C0 29.2783 3.58172 32.86 8 32.86H24C28.4183 32.86 32 29.2783 32 24.86V8.85999C32 4.44171 28.4183 0.859985 24 0.859985Z" fill="#FF8227"/>
<path fill-rule="evenodd" clip-rule="evenodd" d="M22.4379 19.6053C23.1156 18.3406 23.5 16.8952 23.5 15.36C23.5 10.3894 19.4706 6.35999 14.5 6.35999C9.52944 6.35999 5.5 10.3894 5.5 15.36C5.5 20.3306 9.52944 24.36 14.5 24.36C16.034 24.36 17.4783 23.9762 18.7423 23.2995L22.8462 27.4034C23.2627 27.8199 23.9381 27.8199 24.3547 27.4034L26.5411 25.217C26.9576 24.8004 26.9576 24.125 26.5411 23.7085L22.4379 19.6053Z" fill="white"/>
<path fill-rule="evenodd" clip-rule="evenodd" d="M20 15.36C20 12.3218 17.5382 9.85999 14.5 9.85999C11.4618 9.85999 9 12.3218 9 15.36C9 18.3982 11.4618 20.86 14.5 20.86C17.5382 20.86 20 18.3982 20 15.36Z" stroke="#222222" stroke-width="1.3"/>
</g>
<defs>
<clipPath id="clip0_104_197">
<rect width="32" height="32" fill="white" transform="translate(0 0.859985)"/>
</clipPath>
</defs>
</svg>
