<svg width="33" height="33" viewBox="0 0 33 33" fill="none" xmlns="http://www.w3.org/2000/svg">
<g clip-path="url(#clip0_104_241)">
<path d="M24.19 0.859985H8.19C3.77172 0.859985 0.190002 4.44171 0.190002 8.85999V24.86C0.190002 29.2783 3.77172 32.86 8.19 32.86H24.19C28.6083 32.86 32.19 29.2783 32.19 24.86V8.85999C32.19 4.44171 28.6083 0.859985 24.19 0.859985Z" fill="#7FC911"/>
<path d="M23.0321 26.86C24.7762 26.86 26.19 25.4966 26.19 23.8148V7.67351C26.19 7.00462 25.3984 6.62257 24.8431 7.0235L22.7278 8.551C22.4231 8.77098 22.0034 8.76659 21.7038 8.54029L19.72 7.04195C19.415 6.8116 18.9865 6.8116 18.6815 7.04195L16.7093 8.53159C16.4043 8.76194 15.9757 8.76194 15.6707 8.53159L13.6985 7.04195C13.3935 6.8116 12.965 6.8116 12.66 7.04195L10.6762 8.54029C10.3766 8.76658 9.95687 8.77098 9.65223 8.551L7.53686 7.0235C6.98163 6.62257 6.19 7.00462 6.19 7.67351V23.8148C6.19 25.4966 7.60384 26.86 9.34789 26.86H23.0321Z" fill="white"/>
<path d="M10.69 14.86H21.69" stroke="#222222" stroke-width="1.3" stroke-linecap="round" stroke-linejoin="round"/>
<path d="M10.69 17.86H21.69" stroke="#222222" stroke-width="1.3" stroke-linecap="round" stroke-linejoin="round"/>
<path d="M16.19 20.86H21.69" stroke="#222222" stroke-width="1.3" stroke-linecap="round" stroke-linejoin="round"/>
</g>
<defs>
<clipPath id="clip0_104_241">
<rect width="32" height="32" fill="white" transform="translate(0.190002 0.859985)"/>
</clipPath>
</defs>
</svg>
