<svg width="33" height="33" viewBox="0 0 33 33" fill="none" xmlns="http://www.w3.org/2000/svg">
<g clip-path="url(#clip0_104_227)">
<mask id="mask0_104_227" style="mask-type:luminance" maskUnits="userSpaceOnUse" x="0" y="0" width="33" height="33">
<path d="M32.19 0.859985H0.190002V32.86H32.19V0.859985Z" fill="white"/>
</mask>
<g mask="url(#mask0_104_227)">
<path d="M24.19 0.859985H8.19C3.77172 0.859985 0.190002 4.44171 0.190002 8.85999V24.86C0.190002 29.2783 3.77172 32.86 8.19 32.86H24.19C28.6083 32.86 32.19 29.2783 32.19 24.86V8.85999C32.19 4.44171 28.6083 0.859985 24.19 0.859985Z" fill="#51ADFF"/>
<path fill-rule="evenodd" clip-rule="evenodd" d="M13.69 7.35999C12.8616 7.35999 12.19 8.03156 12.19 8.85999V15.86C12.19 16.4123 11.7423 16.86 11.19 16.86H7.19C6.36157 16.86 5.69 17.5316 5.69 18.36V25.86C5.69 26.6884 6.36157 27.36 7.19 27.36H14.69C15.5184 27.36 16.19 26.6884 16.19 25.86V25.36C16.19 24.8077 16.6377 24.36 17.19 24.36H24.69C25.5184 24.36 26.19 23.6884 26.19 22.86V8.85999C26.19 8.03156 25.5184 7.35999 24.69 7.35999H13.69Z" fill="white"/>
<path d="M8.39795 20.76L10.5508 22.9129C11.1506 23.5127 12.1282 23.4962 12.7074 22.8764L18.19 17.01" stroke="#222222" stroke-width="1.3" stroke-linecap="round" stroke-linejoin="round"/>
</g>
</g>
<defs>
<clipPath id="clip0_104_227">
<rect width="32" height="32" fill="white" transform="translate(0.190002 0.859985)"/>
</clipPath>
</defs>
</svg>
