<svg width="33" height="33" viewBox="0 0 33 33" fill="none" xmlns="http://www.w3.org/2000/svg">
<g clip-path="url(#clip0_104_250)">
<path d="M24.19 0.859985H8.19C3.77172 0.859985 0.190002 4.44171 0.190002 8.85999V24.86C0.190002 29.2783 3.77172 32.86 8.19 32.86H24.19C28.6083 32.86 32.19 29.2783 32.19 24.86V8.85999C32.19 4.44171 28.6083 0.859985 24.19 0.859985Z" fill="#3DBC5D"/>
<path d="M14.8332 7.53087L4.59501 23.912C3.92896 24.9777 4.6951 26.36 5.9518 26.36H26.4282C27.6849 26.36 28.451 24.9777 27.785 23.912L17.5468 7.53088C16.9201 6.52821 15.4599 6.5282 14.8332 7.53087Z" fill="white"/>
<path d="M15.6908 23.5112L11.5619 17.3178C11.2961 16.9191 11.5819 16.385 12.0611 16.385H20.3189C20.7981 16.385 21.0839 16.9191 20.8181 17.3178L16.6892 23.5112C16.4517 23.8674 15.9283 23.8674 15.6908 23.5112Z" stroke="#222222" stroke-width="1.3"/>
</g>
<defs>
<clipPath id="clip0_104_250">
<rect width="32" height="32" fill="white" transform="translate(0.190002 0.859985)"/>
</clipPath>
</defs>
</svg>
