<svg width="33" height="33" viewBox="0 0 33 33" fill="none" xmlns="http://www.w3.org/2000/svg">
<g clip-path="url(#clip0_104_261)">
<path d="M24.19 0.859985H8.19C3.77172 0.859985 0.190002 4.44171 0.190002 8.85999V24.86C0.190002 29.2783 3.77172 32.86 8.19 32.86H24.19C28.6083 32.86 32.19 29.2783 32.19 24.86V8.85999C32.19 4.44171 28.6083 0.859985 24.19 0.859985Z" fill="#B750D1"/>
<path d="M6.19 15.0101C6.19 14.2169 6.5664 13.4708 7.20434 12.9994L14.7043 7.45771C15.5873 6.80527 16.7927 6.80527 17.6757 7.45771L25.1757 12.9994C25.8136 13.4708 26.19 14.2169 26.19 15.0101V23.36C26.19 24.7407 25.0707 25.86 23.69 25.86H8.69C7.30929 25.86 6.19 24.7407 6.19 23.36V15.0101Z" fill="white"/>
<path d="M19.69 25.86V20.36C19.69 18.427 18.123 16.86 16.19 16.86C14.257 16.86 12.69 18.427 12.69 20.36V25.86" stroke="#222222" stroke-width="1.3" stroke-linejoin="round"/>
</g>
<defs>
<clipPath id="clip0_104_261">
<rect width="32" height="32" fill="white" transform="translate(0.190002 0.859985)"/>
</clipPath>
</defs>
</svg>
