<svg width="33" height="33" viewBox="0 0 33 33" fill="none" xmlns="http://www.w3.org/2000/svg">
<g clip-path="url(#clip0_104_386)">
<path d="M24.38 0.859985H8.38C3.96173 0.859985 0.380005 4.44171 0.380005 8.85999V24.86C0.380005 29.2783 3.96173 32.86 8.38 32.86H24.38C28.7983 32.86 32.38 29.2783 32.38 24.86V8.85999C32.38 4.44171 28.7983 0.859985 24.38 0.859985Z" fill="#FF5A49"/>
<path d="M18.8879 21.4369C23.6784 16.6465 26.5575 11.7587 25.3186 10.5198C24.0797 9.28092 19.1919 12.16 14.4015 16.9505C9.61102 21.7409 6.73193 26.6287 7.97083 27.8676C9.20974 29.1065 14.0975 26.2274 18.8879 21.4369Z" stroke="#222222" stroke-width="1.3"/>
<path d="M14.6265 8.30687L5.92664 22.1067C5.25495 23.1721 6.02063 24.56 7.28013 24.56H24.6799C25.9394 24.56 26.7051 23.1721 26.0334 22.1067L17.3335 8.30687C16.7058 7.31124 15.2542 7.31124 14.6265 8.30687Z" fill="white"/>
<path d="M25.3191 10.5199C26.558 11.7588 23.6789 16.6465 18.8885 21.437C14.098 26.2274 9.21034 29.1065 7.97144 27.8676" stroke="#222222" stroke-width="1.3"/>
<path d="M19.6335 22.5576C20.6644 22.5576 21.5002 21.7219 21.5002 20.691C21.5002 19.66 20.6644 18.8243 19.6335 18.8243C18.6026 18.8243 17.7668 19.66 17.7668 20.691C17.7668 21.7219 18.6026 22.5576 19.6335 22.5576Z" fill="#222222"/>
</g>
<defs>
<clipPath id="clip0_104_386">
<rect width="32" height="32" fill="white" transform="translate(0.380005 0.859985)"/>
</clipPath>
</defs>
</svg>
