<svg width="33" height="33" viewBox="0 0 33 33" fill="none" xmlns="http://www.w3.org/2000/svg">
<g clip-path="url(#clip0_104_429)">
<path d="M24.38 0.859985H8.38C3.96173 0.859985 0.380005 4.44171 0.380005 8.85999V24.86C0.380005 29.2783 3.96173 32.86 8.38 32.86H24.38C28.7983 32.86 32.38 29.2783 32.38 24.86V8.85999C32.38 4.44171 28.7983 0.859985 24.38 0.859985Z" fill="#FF5A49"/>
<path d="M27.5197 14.4069V22.2889" stroke="#222222" stroke-width="1.3" stroke-linecap="round" stroke-linejoin="round"/>
<path d="M27.521 23.1043C28.2716 23.1043 28.88 22.4958 28.88 21.7453C28.88 20.9947 28.2716 20.3863 27.521 20.3863C26.7705 20.3863 26.162 20.9947 26.162 21.7453C26.162 22.4958 26.7705 23.1043 27.521 23.1043Z" fill="#222222"/>
<path fill-rule="evenodd" clip-rule="evenodd" d="M14.6715 8.49055L4.6494 13.6463C3.87472 14.0448 3.87862 15.1536 4.65609 15.5467L8.76902 17.6261V21.7453H8.77244C8.77016 21.7904 8.76902 21.8357 8.76902 21.8812C8.76902 24.358 12.1762 26.3658 16.3793 26.3658C20.5823 26.3658 23.9895 24.358 23.9895 21.8812C23.9895 21.8357 23.9884 21.7904 23.9861 21.7453H23.9895V17.6261L28.1025 15.5467C28.8799 15.1536 28.8838 14.0448 28.1092 13.6463L18.0871 8.49055C17.0153 7.93918 15.7432 7.93918 14.6715 8.49055Z" fill="white"/>
<path d="M10.9433 18.4838L14.1431 20.0837C15.5507 20.7875 17.2076 20.7875 18.6152 20.0837L21.8151 18.4838" stroke="#222222" stroke-width="1.3" stroke-linecap="round" stroke-linejoin="round"/>
</g>
<defs>
<clipPath id="clip0_104_429">
<rect width="32" height="32" fill="white" transform="translate(0.380005 0.859985)"/>
</clipPath>
</defs>
</svg>
