<svg width="33" height="33" viewBox="0 0 33 33" fill="none" xmlns="http://www.w3.org/2000/svg">
<g clip-path="url(#clip0_104_399)">
<path d="M24.38 0.859985H8.38C3.96173 0.859985 0.380005 4.44171 0.380005 8.85999V24.86C0.380005 29.2783 3.96173 32.86 8.38 32.86H24.38C28.7983 32.86 32.38 29.2783 32.38 24.86V8.85999C32.38 4.44171 28.7983 0.859985 24.38 0.859985Z" fill="#FF5A49"/>
<path d="M16.38 26.86C22.7313 26.86 27.88 22.3828 27.88 16.86C27.88 11.3371 22.7313 6.85999 16.38 6.85999C10.0287 6.85999 4.88 11.3371 4.88 16.86C4.88 22.3828 10.0287 26.86 16.38 26.86Z" fill="white"/>
<path d="M16.38 23.86C21.0744 23.86 24.88 20.726 24.88 16.86C24.88 12.994 21.0744 9.85999 16.38 9.85999C11.6856 9.85999 7.88 12.994 7.88 16.86C7.88 20.726 11.6856 23.86 16.38 23.86Z" stroke="#222222" stroke-width="1.1"/>
<path d="M12.5164 19.3991C13.4334 20.2911 14.8237 20.86 16.38 20.86C19.1414 20.86 21.38 19.0691 21.38 16.86C21.38 14.6509 19.1414 12.86 16.38 12.86C13.8295 12.86 11.725 14.3877 11.4184 16.3618C11.376 16.6346 11.6039 16.86 11.88 16.86H18.5719M18.5719 16.86L16.4255 15.1933M18.5719 16.86L16.4255 18.5267" stroke="#222222" stroke-width="1.1" stroke-linecap="round" stroke-linejoin="round"/>
</g>
<defs>
<clipPath id="clip0_104_399">
<rect width="32" height="32" fill="white" transform="translate(0.380005 0.859985)"/>
</clipPath>
</defs>
</svg>
