<svg width="33" height="33" viewBox="0 0 33 33" fill="none" xmlns="http://www.w3.org/2000/svg">
<g clip-path="url(#clip0_104_272)">
<path d="M24.19 0.859985H8.19C3.77172 0.859985 0.190002 4.44171 0.190002 8.85999V24.86C0.190002 29.2783 3.77172 32.86 8.19 32.86H24.19C28.6083 32.86 32.19 29.2783 32.19 24.86V8.85999C32.19 4.44171 28.6083 0.859985 24.19 0.859985Z" fill="#00CCAE"/>
<path d="M25.69 9.85999H6.69C5.58543 9.85999 4.69 10.7554 4.69 11.86V21.86C4.69 22.9646 5.58543 23.86 6.69 23.86H25.69C26.7946 23.86 27.69 22.9646 27.69 21.86V11.86C27.69 10.7554 26.7946 9.85999 25.69 9.85999Z" fill="white"/>
<path d="M7.69 19.9327C7.69 19.9327 13.9562 13.0849 15.44 13.9327C16.9238 14.7805 12.94 18.222 14.19 19.11C15.44 19.998 18.69 15.8349 19.94 16.3349C21.19 16.8349 19.69 18.3709 20.69 18.8349C21.69 19.2988 24.44 17.4328 24.44 17.4328" stroke="#222222" stroke-width="1.3" stroke-linecap="round" stroke-linejoin="round"/>
</g>
<defs>
<clipPath id="clip0_104_272">
<rect width="32" height="32" fill="white" transform="translate(0.190002 0.859985)"/>
</clipPath>
</defs>
</svg>
