<svg width="33" height="33" viewBox="0 0 33 33" fill="none" xmlns="http://www.w3.org/2000/svg">
<g clip-path="url(#clip0_104_411)">
<path d="M24.38 0.859985H8.38C3.96173 0.859985 0.380005 4.44171 0.380005 8.85999V24.86C0.380005 29.2783 3.96173 32.86 8.38 32.86H24.38C28.7983 32.86 32.38 29.2783 32.38 24.86V8.85999C32.38 4.44171 28.7983 0.859985 24.38 0.859985Z" fill="#4E7BF9"/>
<path fill-rule="evenodd" clip-rule="evenodd" d="M18.993 6.92524C18.4857 6.27032 17.5435 6.15067 16.8886 6.65799L10.1701 11.8623C9.51518 12.3697 9.39554 13.3119 9.90286 13.9668L10.0639 14.1747C10.4787 14.7101 11.1841 14.8878 11.7855 14.6576L13.6675 17.087L6.33459 22.7673C5.67968 23.2746 5.56003 24.2168 6.06735 24.8717L6.94492 26.0046C7.45224 26.6595 8.39443 26.7792 9.04934 26.2719L16.3822 20.5916L18.5142 23.3439C18.2297 23.8532 18.2581 24.5045 18.6379 24.9948L18.7574 25.1491C19.2647 25.804 20.2069 25.9236 20.8618 25.4163L27.3399 20.3982C27.9948 19.8909 28.1144 18.9487 27.6071 18.2938L27.4876 18.1395C27.1078 17.6492 26.4842 17.4589 25.92 17.6071L19.1913 8.92084C19.5645 8.396 19.5688 7.66857 19.154 7.13315L18.993 6.92524Z" fill="white"/>
<path d="M13.2831 13.811L18.1122 10.055M19.9061 22.0963L24.7352 18.3403" stroke="#222222" stroke-width="1.3" stroke-linecap="round" stroke-linejoin="round"/>
</g>
<defs>
<clipPath id="clip0_104_411">
<rect width="32" height="32" fill="white" transform="translate(0.380005 0.859985)"/>
</clipPath>
</defs>
</svg>
