<svg width="33" height="33" viewBox="0 0 33 33" fill="none" xmlns="http://www.w3.org/2000/svg">
<g clip-path="url(#clip0_104_293)">
<path d="M24.19 0.859985H8.19C3.77172 0.859985 0.190002 4.44171 0.190002 8.85999V24.86C0.190002 29.2783 3.77172 32.86 8.19 32.86H24.19C28.6083 32.86 32.19 29.2783 32.19 24.86V8.85999C32.19 4.44171 28.6083 0.859985 24.19 0.859985Z" fill="#51ADFF"/>
<path fill-rule="evenodd" clip-rule="evenodd" d="M8.19 8.85999C6.53315 8.85999 5.19 10.2031 5.19 11.86V21.86C5.19 23.5169 6.53315 24.86 8.19 24.86H18.19C19.8469 24.86 21.19 23.5169 21.19 21.86V20.86C21.19 20.757 21.3076 20.6982 21.39 20.76L25.79 24.06C26.7789 24.8016 28.19 24.096 28.19 22.86V10.86C28.19 9.6239 26.7789 8.91833 25.79 9.65997L21.39 12.96C21.3076 13.0218 21.19 12.963 21.19 12.86V11.86C21.19 10.2031 19.8469 8.85999 18.19 8.85999H8.19Z" fill="white"/>
<path d="M14.4283 15.3068C14.304 15.0754 14.2264 14.8218 14.2001 14.5605C14.1737 14.2992 14.1991 14.0352 14.2748 13.7837C14.3505 13.5322 14.475 13.2981 14.6411 13.0947C14.8073 12.8913 15.0119 12.7226 15.2432 12.5983C15.4746 12.474 15.7282 12.3964 15.9895 12.3701C16.2508 12.3437 16.5148 12.3691 16.7663 12.4448C17.0178 12.5205 17.2519 12.645 17.4553 12.8111C17.6587 12.9773 17.8274 13.1819 17.9517 13.4132" stroke="#222222" stroke-width="1.3" stroke-linecap="round" stroke-linejoin="round"/>
</g>
<defs>
<clipPath id="clip0_104_293">
<rect width="32" height="32" fill="white" transform="translate(0.190002 0.859985)"/>
</clipPath>
</defs>
</svg>
