<svg width="32" height="33" viewBox="0 0 32 33" fill="none" xmlns="http://www.w3.org/2000/svg">
<g clip-path="url(#clip0_104_175)">
<path d="M24 0.859985H8C3.58172 0.859985 0 4.44171 0 8.85999V24.86C0 29.2783 3.58172 32.86 8 32.86H24C28.4183 32.86 32 29.2783 32 24.86V8.85999C32 4.44171 28.4183 0.859985 24 0.859985Z" fill="#FF8227"/>
<path fill-rule="evenodd" clip-rule="evenodd" d="M7.5 6.85999C6.11929 6.85999 5 7.97928 5 9.35999V21.36C5 22.7407 6.11929 23.86 7.5 23.86H12.1471C10.1573 24.4005 8.4936 25.3469 7.40094 26.5401C6.8996 27.0876 7.35368 27.86 8.09601 27.86H23.904C24.6464 27.86 25.1004 27.0876 24.5991 26.5401C23.5064 25.3469 21.8427 24.4005 19.8529 23.86H24.5C25.8807 23.86 27 22.7407 27 21.36V9.35999C27 7.97928 25.8807 6.85999 24.5 6.85999H7.5Z" fill="white"/>
<path d="M12.25 14.86C13.2165 14.86 14 14.0765 14 13.11C14 12.1435 13.2165 11.36 12.25 11.36C11.2835 11.36 10.5 12.1435 10.5 13.11C10.5 14.0765 11.2835 14.86 12.25 14.86Z" stroke="#222222" stroke-width="1.3"/>
<path d="M19.75 20.36C20.7165 20.36 21.5 19.5765 21.5 18.61C21.5 17.6435 20.7165 16.86 19.75 16.86C18.7835 16.86 18 17.6435 18 18.61C18 19.5765 18.7835 20.36 19.75 20.36Z" stroke="#222222" stroke-width="1.3"/>
<path d="M12 19.86L20 11.86" stroke="#222222" stroke-width="1.3" stroke-linecap="round"/>
</g>
<defs>
<clipPath id="clip0_104_175">
<rect width="32" height="32" fill="white" transform="translate(0 0.859985)"/>
</clipPath>
</defs>
</svg>
