<svg width="33" height="33" viewBox="0 0 33 33" fill="none" xmlns="http://www.w3.org/2000/svg">
<g clip-path="url(#clip0_104_300)">
<mask id="mask0_104_300" style="mask-type:luminance" maskUnits="userSpaceOnUse" x="0" y="0" width="33" height="33">
<path d="M32.19 0.859985H0.190002V32.86H32.19V0.859985Z" fill="white"/>
</mask>
<g mask="url(#mask0_104_300)">
<path d="M24.19 0.859985H8.19C3.77172 0.859985 0.190002 4.44171 0.190002 8.85999V24.86C0.190002 29.2783 3.77172 32.86 8.19 32.86H24.19C28.6083 32.86 32.19 29.2783 32.19 24.86V8.85999C32.19 4.44171 28.6083 0.859985 24.19 0.859985Z" fill="#00CCAE"/>
<mask id="mask1_104_300" style="mask-type:luminance" maskUnits="userSpaceOnUse" x="-7" y="-6" width="46" height="46">
<path d="M16.3174 -5.76743L-6.31 16.86L16.3174 39.4874L38.9448 16.86L16.3174 -5.76743Z" fill="white"/>
</mask>
<g mask="url(#mask1_104_300)">
<path fill-rule="evenodd" clip-rule="evenodd" d="M5.58296 13.4356C5.12436 13.2071 5.02479 12.5963 5.38709 12.234L6.91302 10.708C7.08363 10.5374 7.32591 10.4593 7.56405 10.4981L16.9123 12.0225L19.4881 9.44668C19.4918 9.4429 19.4956 9.43912 19.4994 9.43533C21.8426 7.09219 24.6918 6.14244 25.8634 7.31401C27.0349 8.48559 26.0852 11.3348 23.742 13.678L21.0685 16.3515L22.3741 25.9409C22.4057 26.1731 22.327 26.4068 22.1613 26.5725L20.9434 27.7903C20.5811 28.1526 19.9703 28.053 19.7418 27.5944L16.4442 20.9758L14.4912 22.9288L14.9853 25.6664C15.0144 25.8276 14.9627 25.9929 14.8468 26.1088L13.2789 27.6767C13.0357 27.9199 12.6253 27.8507 12.4754 27.5412L10.3184 23.0908C10.2694 22.9897 10.1877 22.908 10.0866 22.859L5.63618 20.702C5.32672 20.5521 5.25753 20.1417 5.50069 19.8985L7.06865 18.3306C7.18451 18.2147 7.34978 18.163 7.51102 18.1921L10.2486 18.6862L12.2016 16.7332L5.58296 13.4356Z" fill="white"/>
<path d="M17.018 17.3489C17.3597 17.6906 17.3597 18.2446 17.018 18.5863C16.6763 18.928 16.1223 18.928 15.7806 18.5863C15.4389 18.2446 15.4389 17.6906 15.7806 17.3489C16.1223 17.0072 16.6763 17.0072 17.018 17.3489Z" fill="#222222"/>
<path d="M19.2104 15.1567C19.5521 15.4984 19.5521 16.0525 19.2104 16.3942C18.8687 16.7359 18.3147 16.7359 17.973 16.3942C17.6313 16.0525 17.6313 15.4984 17.973 15.1567C18.3147 14.815 18.8687 14.815 19.2104 15.1567Z" fill="#222222"/>
<path d="M21.3315 13.0353C21.6732 13.377 21.6732 13.9311 21.3315 14.2728C20.9898 14.6145 20.4358 14.6145 20.0941 14.2728C19.7524 13.9311 19.7524 13.377 20.0941 13.0353C20.4358 12.6936 20.9898 12.6936 21.3315 13.0353Z" fill="#222222"/>
</g>
</g>
</g>
<defs>
<clipPath id="clip0_104_300">
<rect width="32" height="32" fill="white" transform="translate(0.190002 0.859985)"/>
</clipPath>
</defs>
</svg>
