<svg width="32" height="33" viewBox="0 0 32 33" fill="none" xmlns="http://www.w3.org/2000/svg">
<g clip-path="url(#clip0_104_104)">
<path d="M24 0.859985H8C3.58172 0.859985 0 4.44171 0 8.85999V24.86C0 29.2783 3.58172 32.86 8 32.86H24C28.4183 32.86 32 29.2783 32 24.86V8.85999C32 4.44171 28.4183 0.859985 24 0.859985Z" fill="#4E7BF9"/>
<path fill-rule="evenodd" clip-rule="evenodd" d="M20.8632 21.4507C22.6316 19.9356 24.6949 18.1679 24.9732 14.5566C25.3727 9.37321 21.2491 5.35999 16 5.35999C10.7509 5.35999 6.62728 9.37321 7.02676 14.5566C7.30508 18.1679 9.36841 19.9356 11.1368 21.4507C11.9665 22.1616 12.7313 22.8168 13.2164 23.5807C12.7866 23.8445 12.5 24.3188 12.5 24.86V27.36C12.5 28.1884 13.1716 28.86 14 28.86H18C18.8284 28.86 19.5 28.1884 19.5 27.36V24.86C19.5 24.3188 19.2134 23.8445 18.7836 23.5807C19.2687 22.8168 20.0335 22.1616 20.8632 21.4507Z" fill="white"/>
<path d="M14.5 23.36H17.5" stroke="#222222" stroke-width="1.3" stroke-linecap="round" stroke-linejoin="round"/>
</g>
<defs>
<clipPath id="clip0_104_104">
<rect width="32" height="32" fill="white" transform="translate(0 0.859985)"/>
</clipPath>
</defs>
</svg>
